<svg version="1.1" id="Layer_1" xmlns="http://www.w3.org/2000/svg" xmlns:xlink="http://www.w3.org/1999/xlink" x="0px" y="0px"
	 width="100%" viewBox="0 0 374 169" enable-background="new 0 0 374 169" xml:space="preserve">
<path fill="#020202" opacity="0.000000" stroke="none" 
	d="
M225.000000,170.000000 
	C150.000015,170.000000 75.500015,170.000000 1.000020,170.000000 
	C1.000013,113.666679 1.000013,57.333366 1.000007,1.000035 
	C125.666634,1.000023 250.333267,1.000023 374.999939,1.000012 
	C374.999939,57.333298 374.999939,113.666595 374.999969,169.999939 
	C325.166656,170.000000 275.333344,170.000000 225.000000,170.000000 
M60.787571,73.499947 
	C60.787571,82.611450 60.787571,91.722954 60.787571,100.994171 
	C78.684036,100.994171 96.083221,100.994171 113.659966,100.994171 
	C113.659966,83.340843 113.659966,65.932472 113.659966,48.383492 
	C96.021210,48.383492 78.611130,48.383492 60.786552,48.383492 
	C60.786552,56.580791 60.786552,64.540367 60.787571,73.499947 
M211.488556,101.240189 
	C215.635818,101.240189 219.783081,101.240189 223.989349,101.240189 
	C223.989349,83.376129 223.989349,65.847382 223.989349,48.506027 
	C206.230164,48.506027 188.837341,48.506027 171.660065,48.506027 
	C171.660065,66.263329 171.660065,83.644081 171.660065,101.241188 
	C184.858139,101.241188 197.675552,101.241188 211.488556,101.240189 
M280.011932,81.499725 
	C280.011932,70.410347 280.011932,59.320972 280.011932,48.370377 
	C261.823975,48.370377 244.275330,48.370377 226.779022,48.370377 
	C226.779022,66.294250 226.779022,83.864189 226.779022,101.310059 
	C244.681686,101.310059 262.249725,101.310059 280.011932,101.310059 
	C280.011932,94.813858 280.011932,88.656639 280.011932,81.499725 
M123.597000,101.630173 
	C138.684921,101.630173 153.772842,101.630173 169.071075,101.630173 
	C169.071075,83.572670 169.071075,65.987801 169.071075,48.258263 
	C151.351669,48.258263 133.797577,48.258263 116.036438,48.258263 
	C116.036438,66.045876 116.036438,83.602333 116.036438,101.629555 
	C118.364418,101.629555 120.495132,101.629555 123.597000,101.630173 
M51.920639,132.537125 
	C53.222187,129.097916 54.523735,125.658699 55.825283,122.219490 
	C56.264999,122.336143 56.704712,122.452797 57.144428,122.569450 
	C57.144428,128.151520 57.003590,133.739532 57.238598,139.311707 
	C57.301182,140.795685 58.515579,142.231064 59.201157,143.688766 
	C59.982254,142.149231 61.389740,140.629044 61.437965,139.066895 
	C61.668888,131.586594 61.671150,124.090332 61.423920,116.610672 
	C61.364639,114.817169 60.432770,111.937668 59.221313,111.516586 
	C56.193165,110.464050 55.716228,113.354919 54.922249,115.606590 
	C52.805149,121.610542 50.498062,127.547493 47.820732,134.702332 
	C44.953011,126.759521 42.716648,120.186974 40.129059,113.755737 
	C39.676170,112.630127 37.820965,111.868111 36.455673,111.431961 
	C36.043949,111.300430 34.501762,112.826927 34.490860,113.608055 
	C34.360867,122.923874 34.374512,132.243149 34.526306,141.558655 
	C34.538193,142.288132 35.864475,142.996201 36.579872,143.714218 
	C37.174950,142.852509 38.258400,142.004959 38.283905,141.126709 
	C38.423874,136.307007 38.271812,131.479630 38.292774,126.655190 
	C38.299839,125.029594 38.520218,123.404938 38.643101,121.779846 
	C41.061478,125.538887 42.303444,129.320084 43.841522,132.976730 
	C44.889301,135.467728 46.351261,137.784500 47.628021,140.179184 
	C48.988079,137.883911 50.348137,135.588654 51.920639,132.537125 
M231.069199,126.506821 
	C231.352905,132.074310 231.636627,137.641785 231.920349,143.209274 
	C236.698624,143.429489 241.476852,143.650299 246.255219,143.868652 
	C246.587540,143.883835 246.982452,144.000015 247.242630,143.865265 
	C248.303650,143.315765 249.323563,142.686874 250.358627,142.087234 
	C249.258377,141.409973 248.191803,140.224213 247.051697,140.148727 
	C243.305923,139.900681 239.533463,140.055450 235.932678,140.055450 
	C235.932678,135.946167 235.932678,132.541183 235.932678,129.192932 
	C240.141724,128.781036 244.008591,128.402618 247.875443,128.024200 
	C247.873703,127.246201 247.871979,126.468201 247.870239,125.690201 
	C243.852875,125.325043 239.835510,124.959892 235.854233,124.598022 
	C235.154144,115.024437 235.154190,115.030128 244.618973,114.962708 
	C245.946350,114.953247 247.321472,115.041992 248.578156,114.715004 
	C249.142303,114.568230 249.818726,113.496185 249.796661,112.866669 
	C249.777756,112.326775 248.871948,111.772919 248.284378,111.321548 
	C248.068542,111.155731 247.638885,111.282341 247.309616,111.248093 
	C231.071472,109.558716 231.071503,109.558388 231.069199,126.506821 
M197.901169,111.274101 
	C192.799347,111.274101 187.697510,111.274101 182.139450,111.274101 
	C182.139450,117.461510 182.046555,123.079025 182.167419,128.691925 
	C182.273361,133.610611 180.783920,140.470566 183.364578,142.903976 
	C186.058578,145.444260 192.774246,143.719620 197.731766,143.858932 
	C197.898148,143.863617 198.096863,143.922943 198.226074,143.854309 
	C199.246536,143.312363 200.253754,142.745483 201.265045,142.186264 
	C200.245560,141.479996 199.260361,140.231567 198.200470,140.164536 
	C194.322357,139.919266 190.419357,140.067444 186.492340,140.067444 
	C186.492340,135.926163 186.492340,132.645599 186.492340,128.762482 
	C189.814621,128.762482 192.953323,128.898743 196.065872,128.673523 
	C196.920197,128.611694 197.696228,127.468124 198.508194,126.820946 
	C197.671112,126.218544 196.865677,125.156860 195.991241,125.096596 
	C192.902100,124.883720 189.789322,125.013725 186.566650,125.013725 
	C186.438629,123.223244 186.435028,122.064407 186.261002,120.931755 
	C185.522858,116.127510 187.493713,114.249405 192.313095,114.907700 
	C194.433853,115.197388 196.651199,115.066429 198.786011,114.807571 
	C199.510010,114.719780 200.115265,113.652733 200.774765,113.033173 
	C200.104401,112.459053 199.434036,111.884941 197.901169,111.274101 
M69.965927,124.491104 
	C70.009743,127.647141 69.861382,130.820160 70.138367,133.955597 
	C70.675163,140.032135 74.635017,143.817169 80.400284,144.083572 
	C87.380348,144.406143 91.580795,141.606812 92.364189,135.022049 
	C93.145279,128.456726 93.127815,121.783180 93.171127,115.155190 
	C93.179176,113.923958 91.814896,112.683769 91.083984,111.447708 
	C90.344124,112.661438 89.017479,113.850441 88.965111,115.093132 
	C88.727432,120.733406 88.954086,126.391487 88.810829,132.038010 
	C88.675964,137.353622 86.436813,140.019928 82.166527,140.412750 
	C77.326355,140.858032 74.329254,137.747864 74.026703,131.333405 
	C73.760796,125.695976 74.069740,120.032593 73.864326,114.390152 
	C73.824959,113.308861 72.574593,112.271660 71.882912,111.214119 
	C71.232544,112.320198 70.123055,113.385880 70.021492,114.540245 
	C69.760429,117.507538 69.946266,120.514145 69.965927,124.491104 
M132.242233,133.734238 
	C132.199585,127.250885 132.238083,120.764854 132.024719,114.287125 
	C131.993576,113.341431 130.761322,112.435295 130.084824,111.510872 
	C129.268417,112.315834 127.752449,113.114983 127.745689,113.926666 
	C127.689148,120.731583 127.367569,127.605278 128.192093,134.327484 
	C129.099579,141.726028 133.572021,144.597046 141.222977,144.050415 
	C146.649704,143.662689 150.534256,139.308655 150.828339,132.683578 
	C151.100906,126.543022 151.019348,120.381325 150.885208,114.233490 
	C150.863068,113.219528 149.769196,112.228958 149.170609,111.227577 
	C148.449692,112.254463 147.148651,113.256714 147.103821,114.312309 
	C146.850159,120.286163 147.132004,126.287567 146.756363,132.249664 
	C146.522644,135.959503 145.358719,139.605103 140.818237,140.367966 
	C136.212402,141.141815 133.588013,138.851639 132.242233,133.734238 
M270.536438,124.105988 
	C272.439026,121.174377 274.404297,118.280891 276.220398,115.296646 
	C277.283569,113.549599 277.752502,111.423569 274.869904,111.307076 
	C268.805603,111.061989 262.724518,111.232613 256.650299,111.232613 
	C256.552216,111.939651 256.454132,112.646698 256.356049,113.353737 
	C260.293884,117.143471 266.267090,113.320061 270.939514,115.785767 
	C265.275574,124.744209 259.748199,133.486649 254.220810,142.229080 
	C254.490875,142.767990 254.760941,143.306885 255.031021,143.845779 
	C261.760254,143.845779 268.490509,143.897644 275.216980,143.761566 
	C275.854645,143.748688 276.468475,142.557419 277.093353,141.913239 
	C276.273071,141.292435 275.473236,140.169312 274.629089,140.134964 
	C270.206146,139.954971 265.771942,140.050842 260.416534,140.050842 
	C263.987396,134.430161 267.070831,129.576675 270.536438,124.105988 
M306.236420,119.615524 
	C306.235474,118.282631 306.527039,116.861382 306.158051,115.639641 
	C305.716644,114.178162 304.710663,112.887192 303.949219,111.522369 
	C303.234833,112.928459 301.966858,114.309959 301.903107,115.744957 
	C301.644470,121.565460 301.962830,127.413315 301.656403,133.229370 
	C301.459259,136.971268 299.710480,140.043396 295.441864,140.467636 
	C291.093842,140.899750 288.447571,138.791809 287.664612,134.518677 
	C287.277283,132.404739 286.990265,130.246033 286.944122,128.101425 
	C286.843719,123.438629 287.035400,118.767509 286.847809,114.110275 
	C286.808319,113.130501 285.651794,112.195740 285.009979,111.240250 
	C284.301941,111.964439 282.982605,112.686737 282.980347,113.413116 
	C282.957581,120.735695 282.711823,128.101837 283.422241,135.368393 
	C283.986145,141.136520 288.199951,143.925339 294.349213,143.975021 
	C300.642334,144.025864 304.342621,141.457794 305.266541,135.481476 
	C306.023956,130.581924 305.945129,125.553078 306.236420,119.615524 
M210.943039,126.796570 
	C211.595596,131.142990 212.130508,135.512314 212.969910,139.822342 
	C213.233643,141.176544 214.315414,142.371414 215.022766,143.639221 
	C215.892944,142.344208 217.592743,140.982178 217.494415,139.765411 
	C216.978134,133.376068 218.588409,127.685143 221.761414,122.207619 
	C223.621307,118.996941 224.971588,115.491058 226.551102,112.117966 
	C226.033936,111.782303 225.516769,111.446648 224.999588,111.110985 
	C218.677597,113.649231 219.948029,122.079422 214.843689,126.048309 
	C213.427948,122.971321 212.042542,119.986763 210.679459,116.992043 
	C208.019348,111.147667 208.024506,111.145317 203.860962,112.323799 
	C206.155273,116.947235 208.416977,121.504951 210.943039,126.796570 
M108.308517,139.107285 
	C108.979965,140.703796 109.651413,142.300293 110.322861,143.896805 
	C111.041611,142.375305 112.318039,140.876251 112.380394,139.328308 
	C112.621094,133.352585 112.731590,127.346512 112.389618,121.380455 
	C112.119423,116.666664 113.066566,114.008705 118.553368,114.852371 
	C119.723015,115.032211 121.121101,113.726395 122.413940,113.105019 
	C122.205963,112.488068 121.997978,111.871124 121.789993,111.254173 
	C114.854622,111.254173 107.918076,111.196159 100.985497,111.335449 
	C100.211815,111.350990 99.460655,112.487663 98.699051,113.104416 
	C99.507195,113.719666 100.252670,114.462204 101.146950,114.902489 
	C101.684166,115.166977 102.468796,115.054482 103.116005,114.949593 
	C107.361511,114.261566 108.585541,116.137558 108.373047,120.233765 
	C108.063400,126.202866 108.304504,132.200546 108.308517,139.107285 
M170.561172,118.005219 
	C169.312805,120.651398 168.064453,123.297569 166.206970,127.234901 
	C164.307388,123.209900 162.882660,120.318466 161.567398,117.378082 
	C158.708771,110.987305 158.731598,110.977089 154.929825,112.508713 
	C156.084900,114.885887 157.203354,117.260544 158.384125,119.603813 
	C161.659607,126.104149 165.261551,132.466278 164.129578,140.258789 
	C163.972626,141.339233 165.421295,142.652908 166.126663,143.858612 
	C166.804016,142.583771 168.176498,141.231125 168.043961,140.046906 
	C167.281723,133.235184 169.740250,127.384087 172.819473,121.618477 
	C174.431717,118.599663 175.868256,115.487015 177.616455,111.946220 
	C172.115906,110.482201 172.405746,115.016487 170.561172,118.005219 
z"/>
<path fill="#FAFBFB" opacity="1.000000" stroke="none" 
	d="
M60.787064,72.999947 
	C60.786552,64.540367 60.786552,56.580791 60.786552,48.383492 
	C78.611130,48.383492 96.021210,48.383492 113.659966,48.383492 
	C113.659966,65.932472 113.659966,83.340843 113.659966,100.994171 
	C96.083221,100.994171 78.684036,100.994171 60.787571,100.994171 
	C60.787571,91.722954 60.787571,82.611450 60.787064,72.999947 
M89.922546,82.866737 
	C90.484863,81.017494 90.757339,79.010994 91.660362,77.346611 
	C95.298943,70.640274 99.132256,64.039589 102.893639,57.399879 
	C102.446144,57.068310 101.998650,56.736740 101.551155,56.405167 
	C92.822235,58.829338 93.050049,69.016197 87.026482,74.389717 
	C84.207985,69.732513 81.149605,65.041893 78.483749,60.137882 
	C76.884132,57.195274 75.008842,56.149456 71.849022,57.446026 
	C76.400536,69.190796 87.951744,78.061867 84.520210,92.756477 
	C86.779633,92.650375 88.167503,92.585205 89.927589,92.502548 
	C89.927589,89.363655 89.927589,86.563637 89.922546,82.866737 
z"/>
<path fill="#F7F9F8" opacity="1.000000" stroke="none" 
	d="
M210.990753,101.240692 
	C197.675552,101.241188 184.858139,101.241188 171.660065,101.241188 
	C171.660065,83.644081 171.660065,66.263329 171.660065,48.506027 
	C188.837341,48.506027 206.230164,48.506027 223.989349,48.506027 
	C223.989349,65.847382 223.989349,83.376129 223.989349,101.240189 
	C219.783081,101.240189 215.635818,101.240189 210.990753,101.240692 
M186.961670,89.666039 
	C189.245880,90.629234 191.452087,91.898743 193.827545,92.503517 
	C205.168549,95.390816 217.114502,85.993767 216.772766,74.594528 
	C216.530090,66.499771 210.491379,58.886997 202.886810,57.088997 
	C194.021515,54.992916 184.987671,58.905117 181.217773,66.473022 
	C177.116058,74.707008 179.003479,82.967064 186.961670,89.666039 
z"/>
<path fill="#E8E9E9" opacity="1.000000" stroke="none" 
	d="
M280.011932,81.999573 
	C280.011932,88.656639 280.011932,94.813858 280.011932,101.310059 
	C262.249725,101.310059 244.681686,101.310059 226.779022,101.310059 
	C226.779022,83.864189 226.779022,66.294250 226.779022,48.370377 
	C244.275330,48.370377 261.823975,48.370377 280.011932,48.370377 
	C280.011932,59.320972 280.011932,70.410347 280.011932,81.999573 
M230.766876,53.734241 
	C230.766876,68.148964 230.766876,82.563683 230.766876,97.110992 
	C246.004150,97.110992 260.721252,97.110992 275.533325,97.110992 
	C275.533325,82.033279 275.533325,67.185768 275.533325,52.181259 
	C265.050598,52.181259 254.915894,52.119198 244.782532,52.209221 
	C240.182358,52.250084 235.584885,52.592342 230.766876,53.734241 
z"/>
<path fill="#EAEBEB" opacity="1.000000" stroke="none" 
	d="
M123.111427,101.629868 
	C120.495132,101.629555 118.364418,101.629555 116.036438,101.629555 
	C116.036438,83.602333 116.036438,66.045876 116.036438,48.258263 
	C133.797577,48.258263 151.351669,48.258263 169.071075,48.258263 
	C169.071075,65.987801 169.071075,83.572670 169.071075,101.630173 
	C153.772842,101.630173 138.684921,101.630173 123.111427,101.629868 
M165.091766,84.493835 
	C165.091766,73.777565 165.091766,63.061295 165.091766,52.509720 
	C149.578629,52.509720 134.867508,52.509720 120.248428,52.509720 
	C120.248428,67.594734 120.248428,82.337357 120.248428,97.089020 
	C135.235703,97.089020 149.956284,97.089020 165.091766,97.089020 
	C165.091766,93.066147 165.091766,89.278145 165.091766,84.493835 
z"/>
<path fill="#E8E9E9" opacity="1.000000" stroke="none" 
	d="
M51.814415,132.915253 
	C50.348137,135.588654 48.988079,137.883911 47.628021,140.179184 
	C46.351261,137.784500 44.889301,135.467728 43.841522,132.976730 
	C42.303444,129.320084 41.061478,125.538887 38.643101,121.779846 
	C38.520218,123.404938 38.299839,125.029594 38.292774,126.655190 
	C38.271812,131.479630 38.423874,136.307007 38.283905,141.126709 
	C38.258400,142.004959 37.174950,142.852509 36.579872,143.714218 
	C35.864475,142.996201 34.538193,142.288132 34.526306,141.558655 
	C34.374512,132.243149 34.360867,122.923874 34.490860,113.608055 
	C34.501762,112.826927 36.043949,111.300430 36.455673,111.431961 
	C37.820965,111.868111 39.676170,112.630127 40.129059,113.755737 
	C42.716648,120.186974 44.953011,126.759521 47.820732,134.702332 
	C50.498062,127.547493 52.805149,121.610542 54.922249,115.606590 
	C55.716228,113.354919 56.193165,110.464050 59.221313,111.516586 
	C60.432770,111.937668 61.364639,114.817169 61.423920,116.610672 
	C61.671150,124.090332 61.668888,131.586594 61.437965,139.066895 
	C61.389740,140.629044 59.982254,142.149231 59.201157,143.688766 
	C58.515579,142.231064 57.301182,140.795685 57.238598,139.311707 
	C57.003590,133.739532 57.144428,128.151520 57.144428,122.569450 
	C56.704712,122.452797 56.264999,122.336143 55.825283,122.219490 
	C54.523735,125.658699 53.222187,129.097916 51.814415,132.915253 
z"/>
<path fill="#DBDDDC" opacity="1.000000" stroke="none" 
	d="
M231.069168,126.010017 
	C231.071503,109.558388 231.071472,109.558716 247.309616,111.248093 
	C247.638885,111.282341 248.068542,111.155731 248.284378,111.321548 
	C248.871948,111.772919 249.777756,112.326775 249.796661,112.866669 
	C249.818726,113.496185 249.142303,114.568230 248.578156,114.715004 
	C247.321472,115.041992 245.946350,114.953247 244.618973,114.962708 
	C235.154190,115.030128 235.154144,115.024437 235.854233,124.598022 
	C239.835510,124.959892 243.852875,125.325043 247.870239,125.690201 
	C247.871979,126.468201 247.873703,127.246201 247.875443,128.024200 
	C244.008591,128.402618 240.141724,128.781036 235.932678,129.192932 
	C235.932678,132.541183 235.932678,135.946167 235.932678,140.055450 
	C239.533463,140.055450 243.305923,139.900681 247.051697,140.148727 
	C248.191803,140.224213 249.258377,141.409973 250.358627,142.087234 
	C249.323563,142.686874 248.303650,143.315765 247.242630,143.865265 
	C246.982452,144.000015 246.587540,143.883835 246.255219,143.868652 
	C241.476852,143.650299 236.698624,143.429489 231.920349,143.209274 
	C231.636627,137.641785 231.352905,132.074310 231.069168,126.010017 
z"/>
<path fill="#DFE0E0" opacity="1.000000" stroke="none" 
	d="
M198.332428,111.292465 
	C199.434036,111.884941 200.104401,112.459053 200.774765,113.033173 
	C200.115265,113.652733 199.510010,114.719780 198.786011,114.807571 
	C196.651199,115.066429 194.433853,115.197388 192.313095,114.907700 
	C187.493713,114.249405 185.522858,116.127510 186.261002,120.931755 
	C186.435028,122.064407 186.438629,123.223244 186.566650,125.013725 
	C189.789322,125.013725 192.902100,124.883720 195.991241,125.096596 
	C196.865677,125.156860 197.671112,126.218544 198.508194,126.820946 
	C197.696228,127.468124 196.920197,128.611694 196.065872,128.673523 
	C192.953323,128.898743 189.814621,128.762482 186.492340,128.762482 
	C186.492340,132.645599 186.492340,135.926163 186.492340,140.067444 
	C190.419357,140.067444 194.322357,139.919266 198.200470,140.164536 
	C199.260361,140.231567 200.245560,141.479996 201.265045,142.186264 
	C200.253754,142.745483 199.246536,143.312363 198.226074,143.854309 
	C198.096863,143.922943 197.898148,143.863617 197.731766,143.858932 
	C192.774246,143.719620 186.058578,145.444260 183.364578,142.903976 
	C180.783920,140.470566 182.273361,133.610611 182.167419,128.691925 
	C182.046555,123.079025 182.139450,117.461510 182.139450,111.274101 
	C187.697510,111.274101 192.799347,111.274101 198.332428,111.292465 
z"/>
<path fill="#EBEDEC" opacity="1.000000" stroke="none" 
	d="
M69.959717,123.998077 
	C69.946266,120.514145 69.760429,117.507538 70.021492,114.540245 
	C70.123055,113.385880 71.232544,112.320198 71.882912,111.214119 
	C72.574593,112.271660 73.824959,113.308861 73.864326,114.390152 
	C74.069740,120.032593 73.760796,125.695976 74.026703,131.333405 
	C74.329254,137.747864 77.326355,140.858032 82.166527,140.412750 
	C86.436813,140.019928 88.675964,137.353622 88.810829,132.038010 
	C88.954086,126.391487 88.727432,120.733406 88.965111,115.093132 
	C89.017479,113.850441 90.344124,112.661438 91.083984,111.447708 
	C91.814896,112.683769 93.179176,113.923958 93.171127,115.155190 
	C93.127815,121.783180 93.145279,128.456726 92.364189,135.022049 
	C91.580795,141.606812 87.380348,144.406143 80.400284,144.083572 
	C74.635017,143.817169 70.675163,140.032135 70.138367,133.955597 
	C69.861382,130.820160 70.009743,127.647141 69.959717,123.998077 
z"/>
<path fill="#ECEDED" opacity="1.000000" stroke="none" 
	d="
M132.307983,134.159973 
	C133.588013,138.851639 136.212402,141.141815 140.818237,140.367966 
	C145.358719,139.605103 146.522644,135.959503 146.756363,132.249664 
	C147.132004,126.287567 146.850159,120.286163 147.103821,114.312309 
	C147.148651,113.256714 148.449692,112.254463 149.170624,111.227570 
	C149.769196,112.228958 150.863068,113.219528 150.885208,114.233490 
	C151.019348,120.381325 151.100906,126.543022 150.828339,132.683578 
	C150.534256,139.308655 146.649704,143.662689 141.222977,144.050415 
	C133.572021,144.597046 129.099579,141.726028 128.192093,134.327484 
	C127.367569,127.605278 127.689148,120.731583 127.745689,113.926666 
	C127.752449,113.114983 129.268417,112.315834 130.084824,111.510864 
	C130.761322,112.435295 131.993576,113.341431 132.024719,114.287125 
	C132.238083,120.764854 132.199585,127.250885 132.307983,134.159973 
z"/>
<path fill="#E0E2E1" opacity="1.000000" stroke="none" 
	d="
M270.345337,124.414589 
	C267.070831,129.576675 263.987396,134.430161 260.416534,140.050842 
	C265.771942,140.050842 270.206146,139.954971 274.629089,140.134964 
	C275.473236,140.169312 276.273071,141.292435 277.093353,141.913239 
	C276.468475,142.557419 275.854645,143.748688 275.216980,143.761566 
	C268.490509,143.897644 261.760254,143.845779 255.031021,143.845779 
	C254.760941,143.306885 254.490875,142.767990 254.220810,142.229080 
	C259.748199,133.486649 265.275574,124.744209 270.939514,115.785767 
	C266.267090,113.320061 260.293884,117.143471 256.356049,113.353737 
	C256.454132,112.646698 256.552216,111.939651 256.650299,111.232613 
	C262.724518,111.232613 268.805603,111.061989 274.869904,111.307076 
	C277.752502,111.423569 277.283569,113.549599 276.220398,115.296646 
	C274.404297,118.280891 272.439026,121.174377 270.345337,124.414589 
z"/>
<path fill="#EDEFEE" opacity="1.000000" stroke="none" 
	d="
M306.236694,120.098534 
	C305.945129,125.553078 306.023956,130.581924 305.266541,135.481476 
	C304.342621,141.457794 300.642334,144.025864 294.349213,143.975021 
	C288.199951,143.925339 283.986145,141.136520 283.422241,135.368393 
	C282.711823,128.101837 282.957581,120.735695 282.980347,113.413116 
	C282.982605,112.686737 284.301941,111.964439 285.009979,111.240250 
	C285.651794,112.195740 286.808319,113.130501 286.847809,114.110275 
	C287.035400,118.767509 286.843719,123.438629 286.944122,128.101425 
	C286.990265,130.246033 287.277283,132.404739 287.664612,134.518677 
	C288.447571,138.791809 291.093842,140.899750 295.441864,140.467636 
	C299.710480,140.043396 301.459259,136.971268 301.656403,133.229370 
	C301.962830,127.413315 301.644470,121.565460 301.903107,115.744957 
	C301.966858,114.309959 303.234833,112.928459 303.949219,111.522369 
	C304.710663,112.887192 305.716644,114.178162 306.158051,115.639641 
	C306.527039,116.861382 306.235474,118.282631 306.236694,120.098534 
z"/>
<path fill="#E1E3E2" opacity="1.000000" stroke="none" 
	d="
M210.810852,126.429619 
	C208.416977,121.504951 206.155273,116.947235 203.860962,112.323799 
	C208.024506,111.145317 208.019348,111.147667 210.679459,116.992043 
	C212.042542,119.986763 213.427948,122.971321 214.843689,126.048309 
	C219.948029,122.079422 218.677597,113.649231 224.999588,111.110985 
	C225.516769,111.446648 226.033936,111.782303 226.551102,112.117966 
	C224.971588,115.491058 223.621307,118.996941 221.761414,122.207619 
	C218.588409,127.685143 216.978134,133.376068 217.494415,139.765411 
	C217.592743,140.982178 215.892944,142.344208 215.022766,143.639221 
	C214.315414,142.371414 213.233643,141.176544 212.969910,139.822342 
	C212.130508,135.512314 211.595596,131.142990 210.810852,126.429619 
z"/>
<path fill="#DBDCDC" opacity="1.000000" stroke="none" 
	d="
M108.309662,138.646667 
	C108.304504,132.200546 108.063400,126.202866 108.373047,120.233765 
	C108.585541,116.137558 107.361511,114.261566 103.116005,114.949593 
	C102.468796,115.054482 101.684166,115.166977 101.146950,114.902489 
	C100.252670,114.462204 99.507195,113.719666 98.699051,113.104416 
	C99.460655,112.487663 100.211815,111.350990 100.985497,111.335449 
	C107.918076,111.196159 114.854622,111.254173 121.789993,111.254173 
	C121.997978,111.871124 122.205963,112.488068 122.413940,113.105019 
	C121.121101,113.726395 119.723015,115.032211 118.553368,114.852371 
	C113.066566,114.008705 112.119423,116.666664 112.389618,121.380455 
	C112.731590,127.346512 112.621094,133.352585 112.380394,139.328308 
	C112.318039,140.876251 111.041611,142.375305 110.322861,143.896805 
	C109.651413,142.300293 108.979965,140.703796 108.309662,138.646667 
z"/>
<path fill="#E9EBEA" opacity="1.000000" stroke="none" 
	d="
M170.701370,117.650024 
	C172.405746,115.016487 172.115906,110.482201 177.616455,111.946220 
	C175.868256,115.487015 174.431717,118.599663 172.819473,121.618477 
	C169.740250,127.384087 167.281723,133.235184 168.043961,140.046906 
	C168.176498,141.231125 166.804016,142.583771 166.126663,143.858612 
	C165.421295,142.652908 163.972626,141.339233 164.129578,140.258789 
	C165.261551,132.466278 161.659607,126.104149 158.384125,119.603813 
	C157.203354,117.260544 156.084900,114.885887 154.929825,112.508713 
	C158.731598,110.977089 158.708771,110.987305 161.567398,117.378082 
	C162.882660,120.318466 164.307388,123.209900 166.206970,127.234901 
	C168.064453,123.297569 169.312805,120.651398 170.701370,117.650024 
z"/>
<path fill="#0C0D0C" opacity="0.000000" stroke="none" 
	d="
M89.925064,83.315178 
	C89.927589,86.563637 89.927589,89.363655 89.927589,92.502548 
	C88.167503,92.585205 86.779633,92.650375 84.520210,92.756477 
	C87.951744,78.061867 76.400536,69.190796 71.849022,57.446026 
	C75.008842,56.149456 76.884132,57.195274 78.483749,60.137882 
	C81.149605,65.041893 84.207985,69.732513 87.026482,74.389717 
	C93.050049,69.016197 92.822235,58.829338 101.551155,56.405167 
	C101.998650,56.736740 102.446144,57.068310 102.893639,57.399879 
	C99.132256,64.039589 95.298943,70.640274 91.660362,77.346611 
	C90.757339,79.010994 90.484863,81.017494 89.925064,83.315178 
z"/>
<path fill="#0C0D0C" opacity="0.000000" stroke="none" 
	d="
M186.683594,89.421341 
	C179.003479,82.967064 177.116058,74.707008 181.217773,66.473022 
	C184.987671,58.905117 194.021515,54.992916 202.886810,57.088997 
	C210.491379,58.886997 216.530090,66.499771 216.772766,74.594528 
	C217.114502,85.993767 205.168549,95.390816 193.827545,92.503517 
	C191.452087,91.898743 189.245880,90.629234 186.683594,89.421341 
M202.922089,62.259026 
	C192.682968,59.439617 183.406128,66.257988 184.460922,75.827782 
	C185.174042,82.297737 189.840195,87.439011 195.584381,88.083847 
	C202.875732,88.902382 208.231033,85.754387 210.471619,79.332703 
	C212.865784,72.470787 210.541595,66.888565 202.922089,62.259026 
z"/>
<path fill="#070707" opacity="0.000000" stroke="none" 
	d="
M230.876526,53.266060 
	C235.584885,52.592342 240.182358,52.250084 244.782532,52.209221 
	C254.915894,52.119198 265.050598,52.181259 275.533325,52.181259 
	C275.533325,67.185768 275.533325,82.033279 275.533325,97.110992 
	C260.721252,97.110992 246.004150,97.110992 230.766876,97.110992 
	C230.766876,82.563683 230.766876,68.148964 230.876526,53.266060 
M245.374817,59.905647 
	C243.281952,58.678314 241.189087,57.450981 238.380554,55.803959 
	C238.380554,69.048241 238.380554,80.621094 238.380554,92.281540 
	C240.063980,92.281540 241.446426,92.281540 243.292465,92.281540 
	C243.292465,83.466713 243.292465,74.956886 243.292465,65.423912 
	C249.671829,74.059311 255.466217,81.742088 261.061462,89.567238 
	C262.927612,92.177094 264.845795,93.556633 268.034668,92.064423 
	C268.034668,80.388237 268.034668,68.818748 268.034668,56.942333 
	C266.344025,57.075493 264.964478,57.184151 263.102661,57.330795 
	C263.102661,66.014488 263.102661,74.343994 263.102661,83.905525 
	C256.831848,75.397964 251.340027,67.947227 245.374817,59.905647 
z"/>
<path fill="#040404" opacity="0.000000" stroke="none" 
	d="
M165.091766,84.991989 
	C165.091766,89.278145 165.091766,93.066147 165.091766,97.089020 
	C149.956284,97.089020 135.235703,97.089020 120.248428,97.089020 
	C120.248428,82.337357 120.248428,67.594734 120.248428,52.509720 
	C134.867508,52.509720 149.578629,52.509720 165.091766,52.509720 
	C165.091766,63.061295 165.091766,73.777565 165.091766,84.991989 
M145.059540,80.469109 
	C144.315414,82.287201 143.571289,84.105293 142.571838,86.547234 
	C138.511826,76.244087 134.711578,66.600189 130.992111,57.161232 
	C129.031860,57.161232 127.568604,57.161232 125.683060,57.161232 
	C130.234772,68.507744 134.595612,79.580299 139.142563,90.575890 
	C140.329346,93.445747 144.570938,93.655380 145.738770,90.874886 
	C150.393860,79.791466 154.799240,68.603149 159.372940,57.265533 
	C157.256805,57.265533 155.681610,57.265533 154.185349,57.265533 
	C151.156906,64.939674 148.236008,72.341293 145.059540,80.469109 
z"/>
<path fill="#FAFBFB" opacity="1.000000" stroke="none" 
	d="
M203.236084,62.483845 
	C210.541595,66.888565 212.865784,72.470787 210.471619,79.332703 
	C208.231033,85.754387 202.875732,88.902382 195.584381,88.083847 
	C189.840195,87.439011 185.174042,82.297737 184.460922,75.827782 
	C183.406128,66.257988 192.682968,59.439617 203.236084,62.483845 
z"/>
<path fill="#EFF0F0" opacity="1.000000" stroke="none" 
	d="
M245.611511,60.201065 
	C251.340027,67.947227 256.831848,75.397964 263.102661,83.905525 
	C263.102661,74.343994 263.102661,66.014488 263.102661,57.330795 
	C264.964478,57.184151 266.344025,57.075493 268.034668,56.942333 
	C268.034668,68.818748 268.034668,80.388237 268.034668,92.064423 
	C264.845795,93.556633 262.927612,92.177094 261.061462,89.567238 
	C255.466217,81.742088 249.671829,74.059311 243.292465,65.423912 
	C243.292465,74.956886 243.292465,83.466713 243.292465,92.281540 
	C241.446426,92.281540 240.063980,92.281540 238.380554,92.281540 
	C238.380554,80.621094 238.380554,69.048241 238.380554,55.803959 
	C241.189087,57.450981 243.281952,58.678314 245.611511,60.201065 
z"/>
<path fill="#EDEFEE" opacity="1.000000" stroke="none" 
	d="
M145.187317,80.106010 
	C148.236008,72.341293 151.156906,64.939674 154.185349,57.265533 
	C155.681610,57.265533 157.256805,57.265533 159.372940,57.265533 
	C154.799240,68.603149 150.393860,79.791466 145.738770,90.874886 
	C144.570938,93.655380 140.329346,93.445747 139.142563,90.575890 
	C134.595612,79.580299 130.234772,68.507744 125.683060,57.161232 
	C127.568604,57.161232 129.031860,57.161232 130.992111,57.161232 
	C134.711578,66.600189 138.511826,76.244087 142.571838,86.547234 
	C143.571289,84.105293 144.315414,82.287201 145.187317,80.106010 
z"/>
</svg>